<svg xmlns="http://www.w3.org/2000/svg" viewBox="0 0 64 64" width="64" height="64">
<!-- Le « S » est vectorisé (Germania One) : un favicon SVG est chargé en mode image,
     où les @font-face ne sont jamais téléchargées — un <text> y resterait invisible. -->
<defs>
<linearGradient id="sand" x1="0" y1="0" x2="1" y2="1">
<stop offset="0" stop-color="#EFE0BE"/>
<stop offset="1" stop-color="#D9BF93"/>
</linearGradient>
</defs>
<rect x="2" y="2" width="60" height="60" rx="14" fill="url(#sand)"/>
<path fill="#20190F" d="M43.91 36.13Q44.58 37.23 44.58 40.48Q44.58 43.73 43.24 45.98Q42.03 47.74 38.08 50.87Q34.13 54 32.24 54Q28.90 54 24.59 50.51Q20.27 47.01 19.12 42.82L25.86 38.20Q26.83 41.06 28.96 43.43Q31.09 45.80 31.97 45.80Q32.85 45.80 33.85 45.22Q34.86 44.64 35.40 44.03Q36.19 43.06 36.19 40.99Q36.19 38.93 35.22 38.44Q34.01 37.41 30.51 35.71Q27.02 34.01 24.04 32.03Q21.06 30.06 20.24 28.17Q19.42 26.29 19.42 23.28Q19.42 20.27 20.76 18.02Q21.97 16.26 25.92 13.13Q29.87 10 31.76 10Q35.10 10 39.41 13.49Q43.73 16.99 44.88 21.18L38.14 25.86Q37.17 23.01 35.04 20.60Q32.91 18.20 32.03 18.20Q31.15 18.20 30.12 18.75Q29.08 19.30 28.44 20.12Q27.81 20.94 27.81 22.91Q27.81 24.89 29.02 25.56Q29.99 26.41 33.46 28.23Q42.33 33.09 43.91 36.13Z"/>
</svg>
